<?xml version="1.0" standalone="no"?>
<!DOCTYPE svg PUBLIC "-//W3C//DTD SVG 20010904//EN"
 "http://www.w3.org/TR/2001/REC-SVG-20010904/DTD/svg10.dtd">
<svg version="1.0" xmlns="http://www.w3.org/2000/svg"
 width="2173.000000pt" height="2426.000000pt" viewBox="0 0 2173.000000 2426.000000"
 preserveAspectRatio="xMidYMid meet">

<g transform="translate(0.000000,2426.000000) scale(0.100000,-0.100000)"
fill="#000000" stroke="none">
<path d="M11177 23463 c448 -377 788 -832 928 -1242 60 -175 78 -284 79 -468
1 -89 -2 -164 -5 -167 -3 -3 -145 25 -315 63 -170 37 -396 86 -502 107 l-194
39 -41 80 c-23 44 -79 136 -125 205 -408 611 -1037 1042 -1744 1195 l-78 17
-77 -42 c-228 -123 -463 -326 -598 -518 -30 -43 -63 -78 -83 -87 -19 -9 -84
-26 -145 -36 -131 -23 -163 -32 -237 -69 -315 -158 -556 -811 -511 -1383 20
-254 79 -466 165 -596 75 -113 309 -322 469 -420 37 -22 106 -61 155 -86 48
-25 139 -86 202 -135 767 -601 1798 -1049 2705 -1176 85 -12 220 -18 459 -21
431 -6 623 8 943 69 106 20 111 22 102 42 -5 12 -38 136 -74 276 -36 140 -68
263 -71 273 -4 13 1 17 25 17 51 0 238 39 333 71 169 55 318 133 470 247 l86
65 36 106 c107 324 147 646 126 1015 -10 166 -42 462 -51 470 -2 1 -255 34
-562 72 -307 38 -563 72 -569 75 -5 4 -16 62 -23 130 -34 325 -108 598 -255
947 -160 379 -402 646 -742 822 -106 55 -133 64 -232 81 -61 10 -112 19 -114
19 -1 0 28 -26 65 -57z m-2564 -843 c176 -67 408 -425 477 -738 18 -82 18 -84
-1 -117 -22 -37 -49 -150 -49 -207 0 -21 -4 -38 -9 -38 -6 0 -82 16 -171 35
-89 19 -162 35 -163 35 -1 0 -1 53 1 118 8 280 -69 593 -206 842 -26 47 -49
89 -51 94 -6 16 111 -1 172 -24z m-303 -412 c58 -30 104 -92 130 -176 94 -305
-4 -844 -205 -1128 -94 -131 -208 -176 -315 -121 -58 28 -84 80 -106 207 -23
133 -15 455 16 630 55 314 157 527 282 589 59 29 140 28 198 -1z m2939 -1100
l713 -113 -7 -105 c-14 -227 -60 -626 -74 -648 -6 -10 -1544 238 -1558 251 -3
4 8 55 26 114 45 156 79 330 92 473 15 161 12 154 57 147 20 -4 358 -57 751
-119z m1924 -264 l157 -7 0 -121 c-1 -150 -14 -340 -36 -513 -17 -132 -18
-133 -43 -132 -14 0 -129 12 -256 27 l-230 27 2 45 c19 356 35 614 39 649 l6
44 101 -6 c56 -4 173 -10 260 -13z"/>
<path d="M8735 19348 c-37 -153 -162 -765 -157 -769 8 -7 2513 -522 2516 -517
22 34 205 473 199 478 -4 4 -60 14 -123 24 -392 60 -910 189 -1320 332 -302
104 -679 263 -970 409 -71 36 -132 65 -135 65 -2 0 -7 -10 -10 -22z"/>
<path d="M5474 18529 c-169 -87 -271 -156 -371 -251 -111 -107 -192 -216 -253
-342 -99 -205 -132 -348 -136 -595 l-2 -173 -124 -77 c-266 -166 -454 -301
-693 -501 -154 -128 -525 -487 -525 -507 0 -6 44 -45 98 -85 154 -116 393
-369 542 -575 25 -34 48 -63 53 -63 4 0 266 189 582 420 317 231 579 420 582
420 3 0 167 -50 363 -111 l356 -111 34 30 c19 16 91 76 160 133 238 197 319
292 497 586 101 166 185 333 224 444 l23 66 -216 269 c-285 356 -383 469 -568
655 -148 148 -264 251 -395 350 -117 89 -95 87 -231 18z"/>
<path d="M7323 18426 c39 -100 77 -347 84 -536 26 -736 -308 -1404 -917 -1832
-101 -71 -258 -158 -285 -158 -14 0 -73 13 -132 30 -58 16 -108 28 -111 25 -7
-7 17 -365 39 -585 58 -577 136 -863 296 -1087 92 -129 98 -130 546 -140 762
-16 930 -9 1088 46 180 62 365 196 719 524 485 450 657 573 850 613 105 21
475 29 686 15 346 -24 729 -85 927 -148 263 -82 342 -175 666 -793 57 -107
137 -252 178 -322 83 -139 195 -288 217 -288 8 0 27 7 43 15 15 8 47 20 70 25
36 9 55 25 118 97 246 280 370 503 495 882 43 130 94 271 114 315 20 43 36 85
36 92 0 8 15 45 34 82 67 133 164 403 200 554 l6 28 -92 -50 c-269 -143 -604
-253 -933 -305 -133 -22 -527 -31 -665 -16 -258 28 -456 73 -696 158 l-100 36
4 106 c4 95 2 112 -17 149 -26 50 -26 87 -4 273 22 182 25 848 5 1029 -28 253
-88 612 -111 665 -7 16 -36 27 -142 53 -74 18 -139 32 -145 32 -8 0 -8 -16 -3
-52 53 -331 110 -769 120 -913 6 -99 12 -360 13 -580 1 -435 2 -425 -57 -499
l-23 -29 -105 70 c-748 502 -1344 1160 -1685 1860 -63 131 -141 318 -174 418
-12 39 -27 75 -34 81 -24 25 -448 59 -875 70 -236 7 -254 6 -248 -10z"/>
<path d="M13188 17815 c-55 -14 -188 -69 -188 -78 0 -3 30 -5 68 -4 118 1 189
-50 297 -216 193 -298 289 -646 289 -1047 0 -398 -84 -743 -275 -1123 -32 -64
-59 -121 -59 -126 0 -17 113 -34 185 -28 77 6 157 32 216 72 46 30 88 32 215
10 227 -40 391 -119 844 -410 113 -72 246 -155 296 -183 170 -95 348 -160 483
-177 l53 -7 -7 88 c-19 247 86 545 259 732 46 50 45 53 -39 155 -137 165 -390
330 -970 628 l-240 124 3 336 c1 185 -2 347 -6 360 -9 22 -11 20 -47 -36 -21
-33 -70 -125 -108 -205 -231 -485 -288 -582 -401 -693 -36 -35 -88 -76 -117
-92 l-52 -28 7 28 c17 66 55 320 67 440 20 206 17 560 -5 675 -24 121 -74 277
-126 388 -46 98 -162 276 -241 370 l-53 62 -146 -1 c-86 0 -168 -6 -202 -14z"/>
<path d="M2535 15842 c-84 -29 -146 -71 -230 -156 -158 -159 -290 -387 -498
-856 -214 -483 -321 -783 -407 -1145 -18 -71 -44 -170 -59 -220 -25 -78 -44
-165 -38 -165 2 0 59 28 127 63 615 311 1088 158 1374 -444 30 -63 57 -126 61
-141 13 -52 37 -39 103 60 l63 94 -16 41 c-31 79 -115 230 -171 307 -54 76
-204 229 -293 300 l-43 35 441 1019 c243 561 440 1020 439 1021 -15 13 -240
118 -296 139 -179 64 -444 87 -557 48z"/>
<path d="M19635 15564 c-181 -123 -333 -223 -338 -223 -13 -2 -251 101 -338
145 -47 24 -99 44 -115 44 -47 0 -129 -47 -178 -101 -24 -27 -64 -88 -89 -136
-145 -283 -167 -624 -61 -953 78 -242 212 -437 354 -515 47 -25 66 -30 125
-30 51 1 81 6 110 21 l40 21 650 -148 c358 -82 660 -148 672 -146 16 1 102
113 331 429 l310 426 -47 220 c-25 121 -49 223 -52 226 -3 4 -169 -86 -369
-200 l-362 -206 -221 104 -222 104 -7 50 c-3 27 -7 148 -7 270 l-1 220 150
112 151 112 327 -34 c179 -20 327 -34 329 -32 3 2 -623 345 -752 411 l-60 31
-330 -222z"/>
<path d="M18434 15611 c-216 -152 -375 -420 -401 -676 l-5 -51 -97 4 c-311 10
-1922 52 -1994 52 l-86 0 -18 -32 c-14 -28 -17 -63 -17 -233 -1 -194 0 -203
28 -285 78 -233 229 -434 424 -561 210 -137 694 -208 1342 -196 341 7 527 20
914 67 224 28 298 40 240 40 -31 0 -137 93 -217 190 -127 155 -207 309 -260
500 -17 62 -20 105 -20 245 -1 159 1 175 27 255 65 197 175 377 320 526 54 55
108 100 133 112 l42 19 -34 16 c-29 14 -213 57 -243 57 -5 0 -40 -22 -78 -49z"/>
<path d="M9691 14939 c-241 -28 -398 -117 -725 -410 -620 -558 -793 -651
-1336 -715 -111 -14 -231 -18 -517 -18 -205 -1 -373 -4 -373 -7 0 -4 7 -26 15
-50 9 -24 43 -151 76 -284 92 -361 98 -374 327 -721 l146 -221 111 -7 c60 -3
948 -6 1973 -6 l1863 0 -3 42 c-3 40 -4 42 -57 60 -145 49 -200 53 -653 53
-426 -1 -428 -1 -421 20 3 11 27 91 53 177 l46 157 109 99 c388 351 737 764
1014 1201 l90 143 -16 32 c-63 123 -205 280 -328 361 l-80 53 -210 17 c-419
34 -923 45 -1104 24z"/>
<path d="M1643 13139 c-90 -8 -232 -35 -273 -51 -14 -6 -43 -12 -64 -14 -77
-8 -178 -89 -216 -175 -11 -26 -27 -82 -36 -125 -9 -44 -22 -90 -29 -104 -8
-14 -102 -106 -209 -205 l-196 -180 5 -100 c2 -55 10 -379 17 -720 l12 -621
381 -188 381 -187 252 163 c139 90 251 166 249 171 -1 4 -119 156 -261 338
l-259 331 64 204 64 204 30 1 c17 0 165 10 330 23 165 13 303 21 307 19 4 -2
47 -60 94 -129 l86 -126 -30 -76 c-17 -42 -64 -159 -105 -259 l-75 -181 165
-32 c91 -17 166 -30 168 -28 1 2 96 169 210 372 l207 368 -138 491 c-75 270
-137 496 -137 502 0 10 -131 31 -243 38 -18 1 -23 9 -26 49 -7 63 -31 89 -133
139 -98 48 -205 76 -344 89 -116 11 -128 11 -248 -1z"/>
<path d="M7740 12137 c0 -23 70 -490 74 -494 4 -4 2890 137 2894 142 5 5 43
357 39 361 -2 3 -256 -1 -563 -7 -549 -11 -2073 -7 -2326 7 -104 6 -118 5
-118 -9z"/>
<path d="M9155 11474 c-302 -19 -936 -51 -1407 -72 -471 -21 -860 -41 -864
-44 -7 -8 276 -561 466 -908 343 -628 687 -1132 968 -1418 127 -129 252 -203
462 -270 182 -58 228 -63 584 -56 347 6 411 12 527 50 l76 25 12 97 c82 655
107 1095 97 1727 -3 226 -10 473 -15 550 -6 77 -13 188 -17 248 l-7 107 -166
-1 c-91 -1 -413 -17 -716 -35z"/>
<path d="M14170 11344 c-188 -40 -352 -189 -474 -431 -26 -51 -28 -53 -69 -53
-67 0 -1773 -69 -1864 -76 l-82 -6 -31 -101 c-110 -357 -312 -760 -514 -1022
l-46 -60 23 -19 c61 -51 297 -153 442 -191 218 -56 521 -73 760 -41 241 32
536 116 789 225 66 28 120 50 122 48 2 -1 -8 -34 -22 -72 -14 -39 -43 -142
-65 -230 l-39 -160 0 -292 c0 -505 57 -1296 120 -1663 11 -63 20 -118 20 -122
0 -4 20 1 45 12 272 117 639 147 865 70 121 -40 174 -73 261 -159 59 -59 85
-95 118 -161 44 -90 89 -245 79 -272 -9 -23 -120 -57 -503 -152 -487 -122
-542 -140 -613 -200 -137 -114 -231 -299 -263 -515 -15 -109 -6 -293 20 -392
17 -65 67 -179 99 -227 7 -11 439 78 2173 448 1190 254 2165 463 2167 465 6 6
-53 175 -84 240 -200 423 -672 736 -1269 840 -203 35 -487 39 -675 9 l-43 -7
7 34 c79 385 68 860 -33 1444 -25 139 -166 837 -187 922 -6 21 -11 23 -75 23
-59 0 -69 -3 -69 -17 0 -10 7 -109 15 -220 19 -267 8 -336 -69 -421 -55 -60
-115 -85 -206 -86 -93 -1 -136 19 -209 100 -190 208 -436 848 -520 1355 -72
432 -39 821 76 896 29 19 95 23 149 9 30 -8 30 -7 66 71 53 117 55 107 -20
131 -135 43 -256 51 -372 26z m2260 -4708 c221 -34 595 -206 675 -310 27 -36
34 -99 13 -113 -16 -10 -3151 -653 -3157 -647 -2 2 -6 25 -9 52 -5 60 11 141
42 208 33 71 143 184 243 251 101 67 361 199 531 271 328 138 784 256 1122
291 141 14 435 12 540 -3z"/>
<path d="M6853 10627 c-193 -201 -314 -423 -369 -677 -25 -118 -26 -380 -1
-503 34 -167 111 -361 200 -502 102 -162 269 -344 410 -445 l76 -55 0 -186 c2
-468 91 -983 296 -1707 l56 -195 -69 -71 c-335 -345 -357 -828 -70 -1536 55
-134 137 -312 350 -755 247 -512 396 -784 1005 -1830 l140 -240 -37 -45 c-167
-200 -392 -765 -455 -1142 l-6 -38 1686 0 c1596 0 1686 1 1693 18 4 9 7 85 6
167 0 133 -3 160 -28 240 -39 131 -127 307 -280 558 -156 259 -215 374 -246
477 -34 115 -104 240 -134 240 -18 0 -47 -35 -93 -115 -67 -113 -121 -155
-203 -155 l-38 0 -30 83 c-153 422 -137 661 58 858 36 36 92 83 125 104 33 21
61 39 63 41 2 1 -4 33 -14 70 -17 71 -52 159 -53 137 -1 -7 -7 -13 -14 -13 -7
0 -34 -13 -59 -29 -35 -22 -64 -57 -121 -143 -98 -149 -122 -170 -189 -175
l-53 -3 -132 267 c-324 656 -714 1336 -1146 1997 -72 110 -138 220 -147 245
-10 25 -52 118 -93 206 -322 690 -494 1360 -538 2090 -11 182 -8 539 4 551 2
3 100 30 216 61 117 31 208 59 204 63 -4 4 -69 30 -143 59 -543 212 -1027 615
-1335 1111 -153 247 -295 604 -352 883 -15 75 -31 137 -34 137 -4 0 -51 -46
-106 -103z m1089 -4587 c176 -66 424 -318 652 -664 251 -379 446 -803 446
-966 0 -108 -44 -223 -114 -298 -134 -143 -366 -172 -558 -70 -229 122 -628
780 -782 1289 -102 340 -79 585 64 684 86 60 178 68 292 25z m2499 -4329 c406
-87 681 -299 782 -601 8 -25 18 -62 22 -83 l7 -37 -1186 0 c-652 0 -1186 2
-1186 5 0 3 14 41 31 85 121 314 449 550 876 629 155 29 159 29 368 26 144 -3
213 -9 286 -24z"/>
<path d="M16604 5389 c-10 -12 -35 -34 -55 -50 l-36 -29 -529 -49 c-492 -46
-534 -49 -599 -36 l-70 13 -88 -45 c-306 -158 -589 -414 -792 -718 -61 -92
-175 -302 -175 -324 0 -6 66 -49 148 -97 81 -48 149 -89 151 -91 5 -3 109
-735 113 -788 1 -22 -47 -119 -194 -385 -107 -195 -200 -364 -206 -376 -10
-19 23 -57 343 -398 l355 -377 0 -62 c0 -51 4 -64 20 -75 17 -10 20 -9 25 11
2 12 6 44 7 72 l3 49 250 76 c138 42 286 86 330 99 l80 23 327 -149 327 -149
161 -192 c89 -106 168 -192 176 -192 28 0 210 49 300 81 280 98 569 279 785
490 113 111 193 205 185 217 -3 5 -149 91 -325 191 -175 100 -326 188 -335
194 -10 8 -50 135 -107 344 l-90 333 293 364 c161 201 297 365 302 365 8 1
608 -217 613 -223 2 -1 16 -155 33 -341 16 -186 32 -340 34 -342 5 -6 22 78
37 187 16 110 16 431 0 540 -16 114 -46 256 -72 344 -29 100 -99 276 -109 276
-4 0 -6 -8 -4 -17 11 -51 74 -576 70 -580 -4 -4 -402 138 -604 215 -10 3 -504
686 -536 740 -4 7 12 102 36 212 33 153 46 200 58 200 8 0 132 -32 275 -70
142 -38 262 -67 265 -64 8 9 -121 125 -227 205 -227 171 -480 293 -760 365
-157 40 -164 40 -189 13z m256 -276 c173 -81 316 -147 317 -148 2 -1 -17 -91
-40 -200 -28 -127 -48 -201 -57 -206 -8 -5 -216 -63 -461 -129 l-446 -120
-359 136 c-197 75 -360 137 -361 138 -2 2 28 581 30 582 6 3 972 92 1012 93
43 1 84 -15 365 -146z m-1069 -713 c188 -71 343 -130 344 -132 2 -3 36 -801
35 -849 0 -23 -46 -60 -371 -293 -316 -228 -374 -266 -394 -259 -12 4 -171 76
-352 158 l-330 150 -53 375 c-28 206 -53 383 -53 393 -2 13 111 97 403 301
223 156 411 285 418 285 7 1 166 -57 353 -129z m838 -1239 c222 -93 407 -175
411 -183 9 -16 181 -650 178 -653 -2 -1 -198 -165 -437 -365 -239 -200 -439
-363 -446 -363 -7 0 -559 246 -622 278 -6 3 -243 930 -241 941 2 7 163 128
358 269 258 186 360 254 375 251 11 -3 202 -82 424 -175z"/>
</g>
</svg>
