<?xml version="1.0" standalone="no"?>
<!DOCTYPE svg PUBLIC "-//W3C//DTD SVG 20010904//EN"
 "http://www.w3.org/TR/2001/REC-SVG-20010904/DTD/svg10.dtd">
<svg version="1.0" xmlns="http://www.w3.org/2000/svg"
 width="4455.000000pt" height="2472.000000pt" viewBox="0 0 4455.000000 2472.000000"
 preserveAspectRatio="xMidYMid meet">

<g transform="translate(0.000000,2472.000000) scale(0.100000,-0.100000)"
fill="#000000" stroke="none">
<path d="M20947 21655 c-9706 -606 -17649 -1104 -17651 -1106 -7 -8 -1339
-16140 -1332 -16146 3 -3 374 15 823 41 767 44 822 46 888 32 220 -46 624 -52
1225 -17 201 12 7164 417 15475 901 8311 484 15216 887 15345 895 527 35 802
73 1045 145 94 28 122 31 438 49 186 11 340 21 343 23 2 3 15 157 28 344 23
313 27 346 54 429 60 181 105 431 136 750 24 243 30 338 421 5995 201 2907
379 5481 396 5720 50 720 50 1116 1 1360 -17 85 -17 87 34 830 29 410 54 771
55 803 l4 57 -40 -1 c-22 -1 -7981 -497 -17688 -1104z m-4722 -1599 c248 -45
415 -105 556 -199 51 -34 97 -69 102 -77 6 -11 -59 -147 -230 -477 -131 -255
-240 -463 -244 -463 -3 0 -41 20 -84 45 -240 137 -481 178 -664 115 -132 -47
-267 -161 -368 -313 -242 -363 -406 -1069 -420 -1813 -11 -531 50 -746 236
-833 51 -24 66 -26 181 -25 182 1 307 39 652 199 101 47 192 85 204 85 20 0
21 -6 27 -137 18 -381 30 -904 21 -912 -17 -16 -276 -122 -407 -167 -303 -104
-514 -144 -789 -151 -283 -8 -456 22 -644 111 -429 203 -665 621 -750 1326
-24 196 -24 631 0 855 103 970 452 1818 961 2331 286 289 607 459 963 509 135
20 573 14 697 -9z m10470 -418 c-3 -18 -122 -894 -265 -1947 -142 -1052 -261
-1915 -264 -1918 -2 -2 -208 -12 -458 -22 l-453 -18 -38 38 -38 39 3 113 c3
122 -7 165 -46 191 -22 14 -24 12 -58 -47 -124 -215 -320 -386 -520 -453 -136
-45 -317 -49 -441 -8 -269 87 -475 324 -572 659 -86 299 -104 782 -45 1261 80
655 277 1244 539 1614 62 88 202 233 278 286 178 128 424 194 647 174 108 -10
182 -32 277 -81 90 -47 154 -106 193 -180 44 -82 75 -120 113 -136 20 -8 37
-12 40 -9 2 2 24 91 48 196 24 105 45 193 47 195 5 5 895 82 961 84 l58 1 -6
-32z m-4167 -213 c72 -17 186 -68 251 -112 104 -72 228 -219 293 -348 113
-222 156 -527 145 -1015 -23 -990 -300 -1824 -748 -2255 -136 -130 -258 -206
-414 -255 -94 -30 -299 -39 -400 -17 -149 32 -178 49 -333 195 -79 74 -146
131 -150 128 -3 -4 -70 -448 -148 -987 -78 -540 -145 -984 -149 -987 -8 -8
-1087 -93 -1093 -87 -6 6 724 5534 732 5542 6 6 875 82 948 83 l37 0 -2 -237
c-2 -207 0 -238 13 -241 10 -2 24 14 39 45 34 71 122 200 183 267 117 131 283
236 438 276 94 24 267 26 358 5z m-3655 -260 c241 -54 414 -149 577 -315 188
-191 292 -419 346 -755 21 -135 30 -583 15 -753 -54 -601 -249 -1167 -533
-1546 -246 -330 -542 -517 -959 -608 -143 -31 -487 -33 -619 -4 -458 100 -723
365 -845 841 -111 434 -91 997 55 1560 65 253 134 443 235 650 179 367 429
623 781 798 133 67 343 129 504 150 73 10 376 -2 443 -18z m15997 -5438 c0 -2
-290 -569 -645 -1261 l-645 -1257 381 -1230 c209 -677 379 -1232 377 -1234 -6
-6 -1296 -80 -1302 -75 -2 3 -61 259 -131 570 -69 311 -129 575 -132 588 -4
18 -82 -120 -340 -605 -184 -345 -336 -629 -337 -630 -4 -4 -1299 -93 -1302
-90 -2 2 316 576 706 1276 391 700 710 1280 710 1289 0 9 -142 557 -314 1217
-173 660 -312 1202 -311 1203 5 5 1129 102 1182 102 41 0 42 -1 57 -47 37
-113 75 -305 201 -1011 14 -80 18 -87 37 -79 7 2 132 270 277 593 145 324 265
591 267 593 3 4 1138 88 1217 90 26 0 47 0 47 -2z m-3703 -269 c-4 -18 -160
-1149 -348 -2513 -188 -1364 -342 -2481 -343 -2481 -3 -4 -1140 -84 -1143 -81
-1 2 70 527 158 1168 158 1138 161 1166 149 1239 -6 41 -15 78 -19 82 -3 4
-204 -558 -445 -1250 -242 -691 -440 -1258 -441 -1259 -1 -2 -57 -8 -126 -13
-68 -6 -250 -27 -404 -46 -346 -42 -383 -43 -424 -8 -20 17 -36 44 -46 77 -31
110 -67 523 -105 1192 -33 589 -81 1090 -109 1143 -10 18 -51 50 -51 39 0 -15
-320 -2501 -322 -2502 -6 -6 -1101 -106 -1105 -101 -7 6 687 5010 695 5017 4
3 330 34 724 68 l717 62 43 -19 43 -18 150 -1357 150 -1357 480 1392 c264 765
485 1401 490 1412 10 20 43 24 790 82 429 34 795 62 814 63 32 1 33 0 28 -31z
m-5647 -732 c0 -3 -18 -172 -40 -377 -22 -205 -38 -375 -35 -377 3 -3 138 3
300 13 162 10 297 17 299 14 4 -3 -74 -960 -78 -966 -1 -1 -156 -11 -346 -23
-189 -11 -344 -21 -345 -22 -1 -2 -55 -404 -119 -894 -118 -886 -118 -892
-102 -941 16 -49 50 -90 93 -112 49 -25 135 -8 346 68 104 38 187 51 188 30 0
-8 8 -201 18 -429 14 -338 15 -420 5 -441 -37 -75 -265 -164 -580 -228 -284
-57 -456 -61 -643 -15 -150 37 -295 128 -377 237 -139 185 -194 405 -194 773
0 291 17 439 115 1044 65 401 89 572 101 738 l7 92 -167 0 c-156 0 -167 1
-162 18 12 36 25 169 26 247 0 115 18 242 40 284 30 59 106 123 275 233 88 58
180 124 204 148 57 56 101 152 196 430 76 221 129 344 158 369 9 7 162 27 399
50 442 44 418 42 418 37z m-7680 -240 c298 -46 480 -127 636 -283 369 -369
405 -1088 80 -1577 -80 -120 -168 -202 -350 -326 -89 -60 -170 -117 -179 -127
-15 -17 -12 -20 56 -55 231 -120 376 -342 432 -664 24 -132 24 -399 0 -544
-114 -713 -507 -1133 -1238 -1325 -318 -83 -610 -117 -1322 -154 -420 -22
-645 -19 -645 8 0 9 149 1121 331 2471 264 1954 335 2458 348 2468 54 43 353
85 871 121 209 15 857 6 980 -13z m-3102 -899 c-17 -208 -29 -380 -27 -382 2
-1 147 6 322 17 176 11 320 18 322 16 3 -3 -164 -961 -168 -964 -1 -1 -143
-13 -315 -27 -172 -14 -316 -27 -318 -30 -12 -11 -255 -1764 -250 -1801 6 -48
32 -85 77 -109 51 -27 165 -18 314 27 191 57 237 68 246 59 5 -5 17 -202 26
-437 l17 -429 -30 -23 c-88 -72 -317 -164 -515 -208 -177 -39 -291 -49 -477
-43 -189 5 -310 30 -422 87 -192 97 -318 317 -366 642 -13 92 -15 160 -11 363
7 319 26 462 156 1191 35 195 55 329 76 516 6 50 4 59 -16 79 -21 21 -26 22
-165 15 -79 -4 -144 -3 -144 1 0 4 21 151 47 326 l47 317 60 39 c34 21 99 60
146 87 116 65 193 118 237 161 45 46 81 124 192 416 110 289 148 381 171 410
18 21 28 23 407 42 213 12 389 21 390 20 1 0 -12 -171 -29 -378z m-5085 332
c-19 -56 -39 -210 -53 -404 -23 -336 -55 -505 -104 -558 -46 -50 -173 -67
-506 -67 -297 0 -455 -13 -490 -38 -64 -46 -96 -178 -150 -606 -22 -173 -44
-334 -49 -357 -6 -24 -8 -45 -6 -47 2 -2 228 14 502 35 274 22 499 39 501 38
4 -3 -154 -1025 -159 -1029 -2 -1 -230 -25 -507 -53 -276 -27 -505 -52 -507
-55 -3 -3 -69 -432 -146 -954 -77 -521 -141 -949 -142 -950 -3 -4 -1142 -61
-1146 -58 -3 3 689 4972 693 4981 2 3 2156 161 2217 162 l67 1 -15 -41z
m11837 -340 c55 -7 100 -15 100 -20 0 -4 -22 -27 -48 -51 l-49 -43 -509 -47
c-468 -43 -514 -46 -574 -34 l-65 13 65 30 c136 64 373 128 556 152 102 13
408 13 524 0z m328 -300 c169 -78 308 -142 308 -143 4 -3 -79 -372 -85 -378
-6 -7 -854 -238 -875 -238 -8 0 -682 248 -694 255 -3 2 27 547 30 550 3 3 935
92 981 94 17 1 150 -55 335 -140z m622 -229 c129 -34 243 -64 254 -67 14 -4
16 -2 11 8 -13 22 115 -118 168 -184 130 -162 246 -367 253 -449 2 -29 19
-165 37 -301 20 -153 29 -246 23 -244 -6 2 -141 51 -299 108 l-288 104 -255
353 -256 353 43 195 c35 159 46 193 58 190 9 -3 122 -32 251 -66z m-9604 13
c-2 -10 -132 -884 -287 -1943 -155 -1059 -285 -1929 -289 -1933 -8 -9 -886
-54 -894 -46 -3 2 -13 78 -23 168 -11 101 -22 166 -30 168 -6 2 -87 -72 -180
-165 -231 -231 -310 -275 -544 -303 -213 -24 -410 5 -564 84 -119 61 -235 180
-298 307 -26 52 -59 140 -73 195 -26 100 -26 101 -21 410 9 508 38 768 202
1810 74 472 113 743 135 953 8 69 17 112 24 112 6 0 262 18 570 40 307 23 560
39 562 37 2 -2 -71 -536 -162 -1188 -92 -651 -169 -1230 -171 -1286 -10 -209
55 -391 152 -423 29 -10 41 -8 82 10 171 75 251 304 383 1088 75 448 105 677
206 1579 16 134 31 248 34 254 4 6 220 25 556 48 672 47 637 46 630 24z m7969
-465 c176 -66 321 -121 321 -121 4 -4 36 -829 32 -831 -11 -9 -695 -493 -704
-499 -10 -5 -664 279 -680 296 -7 7 -105 710 -102 730 4 24 777 558 798 551 8
-3 159 -59 335 -126z m-1133 -795 l54 -384 -192 -346 c-106 -190 -197 -350
-202 -355 -11 -11 -28 29 -78 177 -124 363 -136 787 -34 1170 27 102 61 203
90 266 l12 27 148 -86 147 -85 55 -384z m3325 27 c199 -72 203 -73 208 -104 2
-17 14 -141 25 -276 11 -135 25 -271 30 -303 8 -50 5 -70 -21 -162 -38 -137
-97 -286 -161 -405 -48 -91 -181 -294 -198 -305 -5 -3 -156 78 -336 180 l-328
185 -87 317 c-73 265 -85 321 -75 333 8 8 116 141 241 295 125 154 248 303
272 332 l44 52 92 -33 c51 -18 183 -66 294 -106z m-1407 -399 l405 -168 82
-299 c46 -164 83 -306 83 -315 0 -13 -368 -324 -787 -667 l-52 -43 -293 132
c-161 72 -297 135 -303 140 -5 5 -62 208 -126 452 l-116 442 66 47 c36 26 192
137 346 247 154 110 282 200 285 200 3 0 187 -75 410 -168z m-1919 -1092 l334
-352 5 -62 5 -62 -59 46 c-32 25 -69 54 -82 64 l-24 19 -119 -106 c-648 -570
-1475 -1047 -2165 -1246 -153 -44 -157 -36 -11 24 546 223 1100 540 1620 928
178 132 430 338 533 434 l53 49 -76 85 c-72 79 -164 197 -196 248 -8 12 -16
22 -20 22 -3 0 -42 -48 -86 -107 -487 -648 -1123 -1136 -1913 -1468 -177 -75
-534 -193 -735 -244 -462 -117 -849 -168 -1335 -177 -323 -7 -471 7 -215 20
197 9 501 40 700 71 1486 232 2670 883 3468 1906 l67 87 -46 86 c-25 47 -44
86 -42 86 2 0 155 -158 339 -351z m1342 -315 l308 -138 152 -180 c84 -98 152
-182 152 -185 0 -9 -64 -19 -204 -32 l-134 -13 -106 -101 c-776 -735 -1712
-1235 -2756 -1469 -473 -106 -879 -149 -1390 -149 -346 0 -557 14 -864 59
-236 34 -501 90 -501 106 0 5 8 7 18 4 63 -18 389 -59 622 -77 326 -26 876
-14 1250 26 1172 126 2245 538 3175 1219 108 79 362 280 440 348 l39 35 -112
7 c-61 4 -149 13 -194 20 l-83 14 -74 -67 c-347 -312 -700 -553 -1122 -766
-232 -117 -449 -208 -691 -290 -315 -107 -705 -197 -912 -210 -81 -5 -81 -5
109 45 764 202 1543 560 2167 997 148 103 408 304 408 315 0 4 -8 8 -17 8 -34
0 -252 79 -359 129 l-106 51 -92 -83 c-933 -850 -2115 -1400 -3336 -1551 -434
-54 -900 -57 -1255 -10 -138 19 -196 36 -85 26 149 -14 745 -6 920 11 947 98
1796 369 2607 833 366 209 819 534 1097 786 l49 44 -44 28 -45 28 10 69 9 69
66 20 c417 127 558 168 566 165 6 -1 149 -65 318 -141z"/>
<path d="M25034 18601 c-98 -60 -192 -263 -273 -591 -64 -262 -98 -530 -107
-850 -12 -399 36 -580 155 -580 95 0 172 74 256 245 154 315 255 828 255 1294
0 287 -36 422 -127 482 -38 25 -118 25 -159 0z"/>
<path d="M21785 18405 c-139 -70 -292 -453 -380 -955 -36 -208 -49 -379 -42
-585 13 -396 99 -541 271 -455 63 32 114 91 160 186 150 307 287 1074 257
1436 -17 203 -47 296 -116 356 -41 37 -98 43 -150 17z"/>
<path d="M18332 18159 c-24 -12 -59 -42 -78 -68 -129 -168 -255 -625 -320
-1156 -46 -388 43 -763 193 -804 68 -19 172 30 224 105 121 176 247 636 295
1076 23 205 23 507 1 607 -23 104 -67 192 -112 227 -52 39 -141 45 -203 13z"/>
<path d="M17091 11507 c-19 -7 -38 -19 -43 -27 -5 -8 -39 -217 -76 -465 l-68
-450 69 -3 c242 -10 448 151 511 400 33 129 29 286 -10 417 -13 45 -21 54 -67
81 -91 52 -239 74 -316 47z"/>
<path d="M16843 9598 c-32 -7 -44 -15 -48 -31 -3 -12 -43 -253 -90 -536 -62
-375 -83 -516 -74 -522 27 -16 129 -19 197 -5 170 35 301 149 393 341 127 264
102 580 -54 699 -79 61 -204 81 -324 54z"/>
<path d="M40887 21055 c-449 -28 -819 -54 -821 -56 -1 -2 -243 -3480 -536
-7729 -293 -4249 -537 -7729 -542 -7735 -5 -5 -7504 -446 -17041 -1001 -9367
-546 -17054 -994 -17082 -996 l-50 -3 41 -13 c23 -6 53 -21 67 -32 14 -11 32
-20 39 -20 8 0 24 -11 36 -25 12 -14 31 -25 42 -25 11 0 30 -6 42 -12 53 -30
52 -15 24 -345 -13 -169 -23 -309 -21 -312 3 -2 359 16 792 41 681 39 800 44
878 34 129 -16 559 -13 920 7 1162 64 29709 1728 29785 1736 52 6 205 18 340
26 248 15 382 30 590 65 63 11 129 20 146 20 17 0 44 5 60 10 16 6 487 37
1048 69 560 33 1021 63 1024 66 4 4 257 3630 563 8058 306 4429 560 8091 563
8140 l7 87 -48 -1 c-26 -1 -416 -25 -866 -54z"/>
</g>
</svg>
